<mxfile host="app.diagrams.net" modified="2023-08-23T08:05:11.597Z" agent="Mozilla/5.0 (Windows NT 10.0; Win64; x64) AppleWebKit/537.36 (KHTML, like Gecko) Chrome/116.0.0.0 Safari/537.36" version="21.6.9" etag="1lwBJfoIrsDrqZJ08-R3" type="github">
  <diagram name="第 1 页" id="ypKuW98edHX5cUWfRp8k">
    <mxGraphModel>
      <root>
        <mxCell id="0" />
        <mxCell id="1" parent="0" />
      </root>
    </mxGraphModel>
  </diagram>
</mxfile>
